<svg width="27.981445" height="27.581421" viewBox="0 0 27.9814 27.5814" fill="none" xmlns="http://www.w3.org/2000/svg" xmlns:xlink="http://www.w3.org/1999/xlink">
	<desc>
			Created with Pixso.
	</desc>
	<defs/>
	<mask id="mask_0_192" fill="white">
		<path id="info button" d="M13.9902 27.5814C21.7178 27.5814 27.9814 21.4071 27.9814 13.7906C27.9814 6.17432 21.7178 0 13.9902 0C6.26367 0 0 6.17432 0 13.7906C0 21.4071 6.26367 27.5814 13.9902 27.5814ZM13.9902 26.4781C21.0996 26.4781 26.8623 20.7977 26.8623 13.7906C26.8623 6.78357 21.0996 1.10327 13.9902 1.10327C6.88184 1.10327 1.11914 6.78357 1.11914 13.7906C1.11914 20.7977 6.88184 26.4781 13.9902 26.4781ZM15.6699 8.27441C15.6699 9.18848 14.918 9.92932 13.9912 9.92932C13.0635 9.92932 12.3115 9.18848 12.3115 8.27441C12.3115 7.36047 13.0635 6.61963 13.9912 6.61963C14.918 6.61963 15.6699 7.36047 15.6699 8.27441ZM11.752 11.0326L11.752 11.5842L12.8721 11.5842L12.8721 20.4103L11.752 20.4103L11.752 20.9619L16.2295 20.9619L16.2295 20.4103L15.1104 20.4103L15.1104 11.0326L11.752 11.0326Z" clip-rule="evenodd" fill="" fill-opacity="1.000000" fill-rule="evenodd"/>
	</mask>
	<path id="info button" d="M13.9902 27.5814C21.7178 27.5814 27.9814 21.4071 27.9814 13.7906C27.9814 6.17432 21.7178 0 13.9902 0C6.26367 0 0 6.17432 0 13.7906C0 21.4071 6.26367 27.5814 13.9902 27.5814ZM13.9902 26.4781C21.0996 26.4781 26.8623 20.7977 26.8623 13.7906C26.8623 6.78357 21.0996 1.10327 13.9902 1.10327C6.88184 1.10327 1.11914 6.78357 1.11914 13.7906C1.11914 20.7977 6.88184 26.4781 13.9902 26.4781ZM15.6699 8.27441C15.6699 9.18848 14.918 9.92932 13.9912 9.92932C13.0635 9.92932 12.3115 9.18848 12.3115 8.27441C12.3115 7.36047 13.0635 6.61963 13.9912 6.61963C14.918 6.61963 15.6699 7.36047 15.6699 8.27441ZM11.752 11.0326L11.752 11.5842L12.8721 11.5842L12.8721 20.4103L11.752 20.4103L11.752 20.9619L16.2295 20.9619L16.2295 20.4103L15.1104 20.4103L15.1104 11.0326L11.752 11.0326Z" clip-rule="evenodd" fill="#2B4074" fill-opacity="1.000000" fill-rule="evenodd" mask="url(#mask_0_192)"/>
	<path id="info button" d="" fill="#979797" fill-opacity="0.000000" fill-rule="nonzero"/>
</svg>
