<svg width="27.788086" height="27.621704" viewBox="0 0 27.7881 27.6217" fill="none" xmlns="http://www.w3.org/2000/svg" xmlns:xlink="http://www.w3.org/1999/xlink">
	<desc>
			Created with Pixso.
	</desc>
	<defs/>
	<mask id="mask_0_187" fill="white">
		<path id="search" d="M19.4404 17.2955C22.6807 13.027 22.3936 6.96057 18.5518 3.11853C14.3506 -1.08215 7.49023 -1.03284 3.22852 3.22876C-1.0332 7.49048 -1.08203 14.3506 3.11816 18.5514C7.01758 22.4501 13.207 22.6879 17.4834 19.2952L25.8096 27.6217L27.7881 25.6431L19.4404 17.2955ZM17.7607 3.90991C21.5303 7.67981 21.4863 13.8364 17.6611 17.661C13.8369 21.4855 7.68066 21.5298 3.91016 17.7599C0.140625 13.99 0.18457 7.83337 4.00879 4.00891C7.83398 0.184326 13.9902 0.140015 17.7607 3.90991Z" clip-rule="evenodd" fill="" fill-opacity="1.000000" fill-rule="evenodd"/>
	</mask>
	<path id="search" d="M19.4404 17.2955C22.6807 13.027 22.3936 6.96057 18.5518 3.11853C14.3506 -1.08215 7.49023 -1.03284 3.22852 3.22876C-1.0332 7.49048 -1.08203 14.3506 3.11816 18.5514C7.01758 22.4501 13.207 22.6879 17.4834 19.2952L25.8096 27.6217L27.7881 25.6431L19.4404 17.2955ZM17.7607 3.90991C21.5303 7.67981 21.4863 13.8364 17.6611 17.661C13.8369 21.4855 7.68066 21.5298 3.91016 17.7599C0.140625 13.99 0.18457 7.83337 4.00879 4.00891C7.83398 0.184326 13.9902 0.140015 17.7607 3.90991Z" clip-rule="evenodd" fill="#2B4074" fill-opacity="1.000000" fill-rule="evenodd" mask="url(#mask_0_187)"/>
	<path id="search" d="" fill="#979797" fill-opacity="0.000000" fill-rule="nonzero"/>
</svg>
